<svg xmlns="http://www.w3.org/2000/svg" width="400" height="600" viewBox="0 0 400 600">
  <!-- 封面背景 -->
  <rect width="400" height="600" fill="#f5f5f5" rx="10" ry="10" stroke="#ddd" stroke-width="2"/>
  
  <!-- 装饰元素 -->
  <rect x="50" y="50" width="300" height="80" fill="#3498db" rx="5" ry="5"/>
  <rect x="50" y="150" width="300" height="30" fill="#2ecc71" rx="5" ry="5"/>
  <rect x="50" y="200" width="250" height="30" fill="#2ecc71" rx="5" ry="5"/>
  <rect x="50" y="250" width="200" height="30" fill="#2ecc71" rx="5" ry="5"/>
  <rect x="50" y="300" width="150" height="30" fill="#2ecc71" rx="5" ry="5"/>
  <rect x="50" y="400" width="300" height="20" fill="#e74c3c" rx="5" ry="5"/>
  <rect x="50" y="430" width="280" height="20" fill="#e74c3c" rx="5" ry="5"/>
  <rect x="50" y="460" width="260" height="20" fill="#e74c3c" rx="5" ry="5"/>
  <rect x="50" y="490" width="240" height="20" fill="#e74c3c" rx="5" ry="5"/>
  <rect x="50" y="520" width="220" height="20" fill="#e74c3c" rx="5" ry="5"/>
  
  <!-- 图书图标 -->
  <g transform="translate(150, 200) scale(3)">
    <path d="M15,2C11.1,2,8,5.1,8,9c0,0.5,0.1,1,0.2,1.5L5,18v8h18v-8L17.8,10.5C17.9,10,18,9.5,18,9 C18,5.1,14.9,2,11,2z" fill="#fff" opacity="0.7"/>
    <path d="M12,18h-2v-7h2V18z M16,11h-2v7h2V11z" fill="#fff" opacity="0.5"/>
  </g>
  
  <!-- 书名文本 -->
  <text x="200" y="100" font-family="Arial, sans-serif" font-size="18" fill="white" text-anchor="middle" font-weight="bold">图书封面</text>
  <text x="200" y="560" font-family="Arial, sans-serif" font-size="12" fill="#666" text-anchor="middle">点击上传图片</text>
</svg>